<?xml version="1.0" encoding="UTF-8" standalone="no"?>
<!-- Created with Inkscape (http://www.inkscape.org/) -->

<svg
   width="64pt"
   height="64pt"
   viewBox="0 0 22.577778 22.577778"
   version="1.1"
   id="svg831"
   inkscape:version="1.1.1 (3bf5ae0d25, 2021-09-20)"
   sodipodi:docname="Export - Unblash - 64px.svg"
   inkscape:export-filename="C:\Users\User\Desktop\CARLOS PROJECT\3. MARET 1\EXPORT\FLAT\1 - Open Folder.png"
   inkscape:export-xdpi="576"
   inkscape:export-ydpi="576"
   xmlns:inkscape="http://www.inkscape.org/namespaces/inkscape"
   xmlns:sodipodi="http://sodipodi.sourceforge.net/DTD/sodipodi-0.dtd"
   xmlns="http://www.w3.org/2000/svg"
   xmlns:svg="http://www.w3.org/2000/svg"
   xmlns:rdf="http://www.w3.org/1999/02/22-rdf-syntax-ns#"
   xmlns:cc="http://creativecommons.org/ns#"
   xmlns:dc="http://purl.org/dc/elements/1.1/">
  <defs
     id="defs825">
    <pattern
       id="EMFhbasepattern"
       patternUnits="userSpaceOnUse"
       width="6"
       height="6"
       x="0"
       y="0" />
    <pattern
       id="EMFhbasepattern-9"
       patternUnits="userSpaceOnUse"
       width="6"
       height="6"
       x="0"
       y="0" />
    <pattern
       id="EMFhbasepattern-0"
       patternUnits="userSpaceOnUse"
       width="6"
       height="6"
       x="0"
       y="0" />
    <pattern
       id="EMFhbasepattern-7"
       patternUnits="userSpaceOnUse"
       width="6"
       height="6"
       x="0"
       y="0" />
    <pattern
       id="EMFhbasepattern-2"
       patternUnits="userSpaceOnUse"
       width="6"
       height="6"
       x="0"
       y="0" />
    <pattern
       id="EMFhbasepattern-98"
       patternUnits="userSpaceOnUse"
       width="6"
       height="6"
       x="0"
       y="0" />
    <pattern
       id="EMFhbasepattern-6"
       patternUnits="userSpaceOnUse"
       width="6"
       height="6"
       x="0"
       y="0" />
    <pattern
       id="EMFhbasepattern-01"
       patternUnits="userSpaceOnUse"
       width="6"
       height="6"
       x="0"
       y="0" />
    <pattern
       id="EMFhbasepattern-07"
       patternUnits="userSpaceOnUse"
       width="6"
       height="6"
       x="0"
       y="0" />
    <pattern
       id="EMFhbasepattern-8"
       patternUnits="userSpaceOnUse"
       width="6"
       height="6"
       x="0"
       y="0" />
    <pattern
       id="EMFhbasepattern-4"
       patternUnits="userSpaceOnUse"
       width="6"
       height="6"
       x="0"
       y="0" />
    <pattern
       id="EMFhbasepattern-40"
       patternUnits="userSpaceOnUse"
       width="6"
       height="6"
       x="0"
       y="0" />
    <pattern
       id="EMFhbasepattern-08"
       patternUnits="userSpaceOnUse"
       width="6"
       height="6"
       x="0"
       y="0" />
    <pattern
       id="EMFhbasepattern-04"
       patternUnits="userSpaceOnUse"
       width="6"
       height="6"
       x="0"
       y="0" />
    <pattern
       id="EMFhbasepattern-014"
       patternUnits="userSpaceOnUse"
       width="6"
       height="6"
       x="0"
       y="0" />
    <pattern
       id="EMFhbasepattern-27"
       patternUnits="userSpaceOnUse"
       width="6"
       height="6"
       x="0"
       y="0" />
    <pattern
       id="EMFhbasepattern-09"
       patternUnits="userSpaceOnUse"
       width="6"
       height="6"
       x="0"
       y="0" />
    <pattern
       id="EMFhbasepattern-5"
       patternUnits="userSpaceOnUse"
       width="6"
       height="6"
       x="0"
       y="0" />
    <pattern
       id="EMFhbasepattern-018"
       patternUnits="userSpaceOnUse"
       width="6"
       height="6"
       x="0"
       y="0" />
  </defs>
  <sodipodi:namedview
     id="base"
     pagecolor="#ffffff"
     bordercolor="#666666"
     borderopacity="1.0"
     inkscape:pageopacity="0.0"
     inkscape:pageshadow="2"
     inkscape:zoom="9.1757813"
     inkscape:cx="35.473818"
     inkscape:cy="42.666666"
     inkscape:document-units="pt"
     inkscape:current-layer="layer1"
     showgrid="false"
     units="pt"
     inkscape:window-width="1920"
     inkscape:window-height="1001"
     inkscape:window-x="-9"
     inkscape:window-y="41"
     inkscape:window-maximized="1"
     inkscape:pagecheckerboard="true"
     inkscape:showpageshadow="false"
     inkscape:object-paths="true"
     inkscape:snap-intersection-paths="true"
     inkscape:snap-smooth-nodes="true"
     inkscape:snap-midpoints="true"
     showguides="true"
     inkscape:snap-bbox="true"
     inkscape:bbox-nodes="true"
     inkscape:snap-nodes="false"
     inkscape:snap-global="true">
    <inkscape:grid
       type="xygrid"
       id="grid1378" />
    <sodipodi:guide
       position="0.97013831,21.607643"
       orientation="78.000048,0"
       id="guide1380"
       inkscape:locked="false" />
    <sodipodi:guide
       position="0.97013831,0.97013129"
       orientation="0,78.000005"
       id="guide1382"
       inkscape:locked="false" />
    <sodipodi:guide
       position="21.607639,0.97013129"
       orientation="-78.000048,0"
       id="guide1384"
       inkscape:locked="false" />
    <sodipodi:guide
       position="21.607639,21.607643"
       orientation="0,-78.000005"
       id="guide1386"
       inkscape:locked="false" />
  </sodipodi:namedview>
  <metadata
     id="metadata828">
    <rdf:RDF>
      <cc:Work
         rdf:about="">
        <dc:format>image/svg+xml</dc:format>
        <dc:type
           rdf:resource="http://purl.org/dc/dcmitype/StillImage" />
      </cc:Work>
    </rdf:RDF>
  </metadata>
  <g
     inkscape:label="Icon"
     inkscape:groupmode="layer"
     id="layer1"
     transform="translate(0,-274.42223)">
    <g
       id="g1546"
       style="display:inline;stroke-width:0.798936"
       transform="matrix(1.2516649,0,0,1.2516649,77.05034,-37.25632)">
      <path
         style="color:#000000;fill:#e59f2e;stroke-width:0.798936;stroke-linecap:round;stroke-linejoin:round;-inkscape-stroke:none"
         d="m -56.814453,253.65625 a 0.26461046,0.26461046 0 0 0 -0.263672,0.26953 l 0.07422,3.66797 a 0.26461046,0.26461046 0 0 0 0.269531,0.25781 l 10.244141,-0.16992 a 0.26461046,0.26461046 0 0 0 0.259765,-0.26367 v -1.97266 c 0,-0.98549 -0.805525,-1.78906 -1.791015,-1.78906 z"
         id="path391365" />
      <path
         id="path604929"
         style="fill:#ca7d02;fill-opacity:1;stroke-width:3.0196;stroke-linecap:round;stroke-linejoin:round"
         d="m -214.73242,-99.818359 a 1.0001025,1.0001025 0 0 0 -0.9961,1.017578 l 0.28125,13.863281 a 1.0001025,1.0001025 0 0 0 1.01758,0.974609 l 32.07422,-0.533203 4.45899,-3.201172 A 2.4867896,2.4867896 0 0 0 -176.86914,-90 c -0.48438,-4.211339 -4.09278,-7.494141 -8.40234,-7.494141 h -21.50977 l -0.94141,-2.324218 z"
         transform="matrix(0.26458334,0,0,0.26458334,0,280.06666)" />
      <path
         style="color:#000000;fill:#fcba4c;stroke-width:0.798936;stroke-linecap:round;stroke-linejoin:round;-inkscape-stroke:none"
         d="m -47.451172,256.32815 c -0.09048,-0.78667 -0.76009,-1.39843 -1.568359,-1.39843 h -5.701172 c -0.261814,0 -0.497475,-0.15772 -0.595703,-0.40039 L -55.6875,253.6094 c -0.178526,-0.44107 -0.608164,-0.73046 -1.083984,-0.73046 l -2.210938,-3e-5 c -0.991108,0 -1.800781,0.80968 -1.800781,1.80078 v 6.71289 c 0,0.98548 0.805528,1.78906 1.791016,1.78906 h 1.996093 z"
         id="path391557"
         sodipodi:nodetypes="cssccccssscc" />
      <path
         style="color:#000000;fill:#fcba4c;stroke-width:0.798936;stroke-linecap:round;stroke-linejoin:round;-inkscape-stroke:none"
         d="m -56.183594,256.09375 c -0.915914,0 -1.717187,0.62661 -1.9375,1.51562 l -0.974609,3.92969 c -0.205454,0.82907 0.432972,1.64258 1.287109,1.64258 h 10.564453 c 0.915912,0 1.717187,-0.62661 1.9375,-1.51562 l 0.972657,-3.92969 c 0.205454,-0.82907 -0.431016,-1.64258 -1.285157,-1.64258 z"
         id="path391886" />
      <path
         id="path3061-5"
         style="color:#000000;fill:#e59f2e;fill-opacity:1;stroke-width:3.0196;stroke-linecap:round;stroke-linejoin:round;-inkscape-stroke:none"
         d="m -222.36133,-74.027344 -0.49609,2.001953 h 52.23242 l 0.49609,-2.001953 z"
         transform="matrix(0.26458334,0,0,0.26458334,0,280.06666)" />
      <path
         id="path591076"
         style="color:#000000;fill:#ca7d02;fill-opacity:1;stroke-width:0.798936;stroke-linecap:round;stroke-linejoin:round;-inkscape-stroke:none"
         d="m -56.183653,256.09396 c -0.915914,0 -1.717035,0.62615 -1.937348,1.51516 l -0.974619,3.92999 c -0.150016,0.60537 0.149979,1.20188 0.655259,1.48001 -0.153644,-0.2785 -0.209719,-0.61338 -0.126093,-0.95085 l 0.97462,-3.92947 c 0.220313,-0.88901 1.021434,-1.51567 1.937348,-1.51567 h 10.56473 c 0.23005,0 0.443664,0.0593 0.629936,0.16175 -0.223319,-0.40549 -0.652801,-0.69092 -1.159102,-0.69092 z" />
    </g>
  </g>
</svg>
